<?xml version="1.0" encoding="UTF-8" standalone="no"?>
<svg width="139px" height="30px" viewBox="0 0 139 30" version="1.1" xmlns="http://www.w3.org/2000/svg" xmlns:xlink="http://www.w3.org/1999/xlink">
    <!-- Generator: Sketch 40.3 (33839) - http://www.bohemiancoding.com/sketch -->
    <title>ic_enlogo</title>
    <desc>Created with Sketch.</desc>
    <defs></defs>
    <g id="Wireframe-System" stroke="none" stroke-width="1" fill="none" fill-rule="evenodd">
        <g id="EnKey-Desktop_v2" transform="translate(-51.000000, -16.000000)">
            <g id="ic_enlogo" transform="translate(51.000000, 16.000000)">
                <polygon id="Fill-1" fill="#1DE9B6" points="0 0.264081614 0 28.9519596 17.5531217 28.9519596 17.5531217 23.2144192 6.53755828 23.2144192 6.53755828 17.442371 13.7153598 17.442371 13.7153598 11.7047426 6.53755828 11.7047426 6.53755828 6.00171002 10.9971651 6.00171002 10.9971651 0.264081614"></polygon>
                <polygon id="Fill-2" fill="#1DE9B6" points="26.7068301 28.9520212 20.1692718 28.9520212 20.1692718 0.264055205 26.7068301 0.264055205 38.112367 18.0680628 38.1819989 18.0680628 38.1819989 0.264055205 44.7192931 0.264055205 44.7192931 28.9520212 38.1819989 28.9520212 26.7761098 11.1480136 26.7068301 11.1480136"></polygon>
                <g id="Group-14" transform="translate(0.000000, 0.076410)" fill="#000035">
                    <path d="M50.3431513,13.4851081 L52.0354427,13.4851081 C52.2906421,13.4851081 52.5108935,13.4746325 52.6997182,13.4553539 C52.8867822,13.4344028 53.0580889,13.394173 53.2137261,13.3347527 C53.3676028,13.2735717 53.5126765,13.1966334 53.645514,13.1022651 C53.7801121,13.0078087 53.9217525,12.8872074 54.0685868,12.7403732 L65.568316,0.918981834 C65.7833736,0.703924205 65.9809133,0.551808124 66.1626955,0.464394196 C66.3445658,0.376980268 66.5683384,0.333317319 66.8375346,0.333317319 L68.5087868,0.333317319 L56.0632617,13.1232162 C55.8080624,13.3907398 55.5825292,13.598755 55.3885107,13.7473499 C55.1927317,13.8941842 54.9759135,14.0147855 54.7329503,14.1092418 C55.0161432,14.1896133 55.2679094,14.3137358 55.4881608,14.4816093 C55.7101729,14.6493948 55.9357061,14.8679736 56.1629119,15.1371698 L69.2937515,28.8308741 L67.6224993,28.8308741 C67.2728436,28.8308741 67.0245986,28.7802568 66.8777643,28.6806067 C66.7291695,28.5791959 66.5752928,28.448031 66.4144617,28.2872 L54.3517798,15.9623643 C54.2031849,15.815442 54.0685868,15.6878863 53.9479855,15.5794332 C53.8273842,15.4728287 53.6892649,15.3818935 53.5353883,15.3084764 C53.3815116,15.2332987 53.1962081,15.1808327 52.9812385,15.1458847 C52.7661809,15.1126974 52.4986573,15.09694 52.1752346,15.09694 L50.3431513,15.09694 L50.3431513,28.8308741 L48.288968,28.8308741 L48.288968,0.293087545 L50.3431513,0.293087545 L50.3431513,13.4851081 L50.3431513,13.4851081 Z" id="Fill-3"></path>
                    <polygon id="Fill-5" points="90.091805 0.333299713 90.091805 2.04654228 75.0886523 2.04654228 75.0886523 13.5655501 87.5744071 13.5655501 87.5744071 15.2368023 75.0886523 15.2368023 75.0886523 27.1193745 90.091805 27.1193745 90.091805 28.8309445 73.0135178 28.8309445 73.0135178 0.333299713"></polygon>
                    <path d="M107.967126,17.0706901 L107.967126,28.8309005 L105.893752,28.8309005 L105.893752,17.0706901 L95.3607697,0.333343728 L97.1527113,0.333343728 C97.3397753,0.333343728 97.4918033,0.377006677 97.6054503,0.464420605 C97.7190972,0.551834533 97.8309835,0.675957029 97.937588,0.836788094 L106.094813,13.927398 C106.281877,14.2368239 106.444468,14.5357743 106.577306,14.824249 C106.711904,15.1127238 106.832505,15.4046317 106.940958,15.7000609 C107.047563,15.4046317 107.168164,15.1127238 107.302762,14.824249 C107.437448,14.5357743 107.59828,14.2368239 107.787016,13.927398 L115.923202,0.836788094 C116.003661,0.689953821 116.103311,0.569352531 116.223913,0.474896192 C116.346275,0.380527882 116.500151,0.333343728 116.687215,0.333343728 L118.500108,0.333343728 L107.967126,17.0706901 Z" id="Fill-7"></path>
                    <path d="M137.534337,3.79826282 C137.413736,4.02731724 137.238908,4.14087612 137.011614,4.14087612 C136.835025,4.14087612 136.60958,4.01675363 136.333342,3.76850864 C136.057103,3.52026364 135.684736,3.2441131 135.212718,2.94164154 C134.7407,2.63916998 134.151515,2.36125883 133.445249,2.10597143 C132.737222,1.85077205 131.864844,1.72312835 130.828201,1.72312835 C129.79147,1.72312835 128.878949,1.87172323 128.090464,2.16715237 C127.302066,2.46266955 126.642984,2.8647032 126.109785,3.37518997 C125.578347,3.88567675 125.174465,4.47653504 124.898227,5.14785289 C124.622076,5.81917073 124.483957,6.52376396 124.483957,7.26145653 C124.483957,8.22820351 124.688451,9.02716506 125.099287,9.65825312 C125.508363,10.2893412 126.050365,10.8260609 126.723355,11.270085 C127.394673,11.7124364 128.158687,12.0848039 129.011787,12.3871874 C129.864887,12.689659 130.742548,12.9886093 131.644592,13.2840385 C132.544965,13.5795557 133.422537,13.904651 134.275637,14.2613491 C135.128825,14.6161986 135.892751,15.0637438 136.564069,15.6004636 C137.237147,16.1371833 137.7773,16.7979376 138.188137,17.5829023 C138.598973,18.3696277 138.803555,19.3450896 138.803555,20.5128975 C138.803555,21.7086989 138.598973,22.8328437 138.189897,23.8870047 C137.779061,24.9411656 137.184681,25.8572072 136.406759,26.6368901 C135.628748,27.4149005 134.674238,28.0284706 133.54666,28.479537 C132.419082,28.9288429 131.130672,29.1543761 129.679584,29.1543761 C127.800316,29.1543761 126.183203,28.8203897 124.82657,28.1561143 C123.469938,27.4917508 122.282939,26.5827516 121.261966,25.42718 L121.826679,24.5408045 C121.98751,24.3397437 122.174574,24.2400936 122.389544,24.2400936 C122.510233,24.2400936 122.665782,24.3205531 122.852846,24.4813842 C123.041671,24.6422152 123.270637,24.8397549 123.539922,25.0757637 C123.807357,25.3100119 124.13078,25.5652993 124.506669,25.8414498 C124.88423,26.1159278 125.321299,26.3712152 125.817789,26.6054634 C126.31604,26.8414722 126.885947,27.0390118 127.532793,27.1998429 C128.177877,27.360674 128.910376,27.4410455 129.730289,27.4410455 C130.859628,27.4410455 131.868365,27.2697388 132.756501,26.9288861 C133.642788,26.5861848 134.392805,26.119449 135.004703,25.5285027 C135.616512,24.9376444 136.083336,24.2365723 136.406759,23.423702 C136.728421,22.6125043 136.891013,21.7418862 136.891013,20.815369 C136.891013,19.8083923 136.68467,18.9797646 136.275594,18.3293979 C135.864757,17.6773586 135.322844,17.1335965 134.651526,16.6966149 C133.978447,16.2613058 133.216282,15.8958927 132.361334,15.6004636 C131.508234,15.3050344 130.630661,15.0165597 129.730289,14.7333667 C128.830005,14.4518463 127.952344,14.1372266 127.099244,13.7875709 C126.244383,13.4379152 125.48213,12.9921306 124.809052,12.4484564 C124.137822,11.9046942 123.595821,11.226422 123.186745,10.4134637 C122.775908,9.60235399 122.571414,8.58490164 122.571414,7.36286725 C122.571414,6.41011705 122.751436,5.49055422 123.115088,4.60417875 C123.478741,3.71780328 124.010179,2.93635973 124.70949,2.25808751 C125.406953,1.57981529 126.272377,1.03605312 127.300305,0.625216457 C128.328233,0.216140401 129.501323,0.0116463874 130.819486,0.0116463874 C132.298392,0.0116463874 133.625358,0.24765519 134.801881,0.716151591 C135.978404,1.18640859 137.050083,1.90491059 138.018591,2.87174561 L137.534337,3.79826282 Z" id="Fill-9"></path>
                </g>
            </g>
        </g>
    </g>
</svg>