<?xml version="1.0" encoding="UTF-8" standalone="no"?>
<svg width="373px" height="82px" viewBox="0 0 373 82" version="1.1" xmlns="http://www.w3.org/2000/svg" xmlns:xlink="http://www.w3.org/1999/xlink">
    <!-- Generator: Sketch 41.2 (35397) - http://www.bohemiancoding.com/sketch -->
    <title>Page 1</title>
    <desc>Created with Sketch.</desc>
    <defs>
        <polygon id="path-1" points="0.3445 82 63.1385 82 63.1385 0.1996 0.3445 0.1996 0.3445 82"></polygon>
    </defs>
    <g id="Visual" stroke="none" stroke-width="1" fill="none" fill-rule="evenodd">
        <g id="KAYSYN-LOGIN" transform="translate(-118.000000, -440.000000)">
            <g id="Page-1" transform="translate(118.000000, 439.000000)">
                <path d="M0.0001,2.8101 L17.6501,2.8101 L17.6501,27.2721 C17.6501,30.1181 21.1461,31.4811 23.0731,29.3861 L47.5191,2.8101 L69.3551,2.8101 L37.9021,37.7711 C40.6181,41.5431 45.6331,48.5751 52.9501,58.8721 C60.2651,69.1671 65.7351,76.8431 69.3551,81.8951 L48.7641,81.8951 L27.8491,53.7371 C26.6711,52.1521 24.3361,52.0431 23.0171,53.5131 L18.4491,58.6031 C17.9351,59.1761 17.6501,59.9201 17.6501,60.6901 L17.6501,81.8951 L0.0001,81.8951 L0.0001,2.8101 Z" id="Fill-1" fill="#1DE9B6"></path>
                <path d="M117.7984,26.3433 L107.8414,49.3113 L127.6414,49.3113 L117.7984,26.3433 Z M141.6714,81.8953 L134.3174,64.8113 L101.1664,64.8113 L93.8124,81.8953 L75.0314,81.8953 L109.1994,2.8103 L126.2834,2.8103 L160.4524,81.8953 L141.6714,81.8953 Z" id="Fill-3" fill="#1DE9B6"></path>
                <path d="M195.0045,81.8799 L177.3545,81.8799 L177.3545,50.6689 L149.9745,2.8099 L169.0955,2.8099 L183.4785,27.5759 C184.6825,29.6489 187.6765,29.6489 188.8805,27.5759 L203.2635,2.8099 L222.3845,2.8099 L195.0045,50.6689 L195.0045,81.8799 Z" id="Fill-5" fill="#1DE9B6"></path>
                <g id="Group-9" transform="translate(223.000000, 0.800700)">
                    <mask id="mask-2" fill="white">
                        <use xlink:href="#path-1"></use>
                    </mask>
                    <g id="Clip-8"></g>
                    <path d="M24.5005,17.7926 C22.8035,19.1896 21.9555,21.0366 21.9555,23.3366 C21.9555,25.6386 22.9905,27.4666 25.0665,28.8236 C27.1405,30.1816 31.9295,31.7846 39.4355,33.6326 C46.9395,35.4816 52.7665,38.2536 56.9155,41.9486 C61.0635,45.6446 63.1385,51.0386 63.1385,58.1276 C63.1385,65.2176 60.4795,70.9686 55.1615,75.3816 C49.8445,79.7936 42.8475,82.0006 34.1745,82.0006 C21.6525,82.0006 10.3755,77.3616 0.3445,68.0836 L9.2585,57.1576 C10.1355,56.0826 11.7165,55.9366 12.7905,56.8166 C20.5795,63.1966 27.8205,66.3866 34.5135,66.3866 C37.7555,66.3866 40.3015,65.6906 42.1505,64.2936 C43.9985,62.8986 44.9225,61.0126 44.9225,58.6366 C44.9225,56.2606 43.9415,54.3756 41.9805,52.9796 C40.0185,51.5846 36.1345,50.1706 30.3275,48.7366 C21.1245,46.5496 14.3925,43.7016 10.1315,40.1946 C5.8695,36.6876 3.7395,31.1816 3.7395,23.6756 C3.7395,16.1716 6.4355,10.3816 11.8285,6.3086 C17.2205,2.2356 23.9525,0.1996 32.0245,0.1996 C37.3035,0.1996 42.5835,1.1046 47.8645,2.9146 C53.1435,4.7246 57.7445,7.2896 61.6675,10.6086 L54.5255,20.9136 C53.5655,22.2996 51.6675,22.6856 50.2615,21.7546 C44.1685,17.7176 37.9005,15.6996 31.4585,15.6996 C28.5175,15.6996 26.1975,16.3976 24.5005,17.7926" id="Fill-7" fill="#1DE9B6" mask="url(#mask-2)"></path>
                </g>
                <path d="M355.2608,2.8101 L372.9108,2.8101 L372.9108,80.2361 C372.9108,81.1531 372.1678,81.8951 371.2508,81.8951 L356.0838,81.8951 C355.5648,81.8951 355.0768,81.6531 354.7628,81.2401 L320.9508,36.7681 C319.8648,35.3391 317.5848,36.1071 317.5848,37.9021 L317.5848,81.8951 L299.9348,81.8951 L299.9348,3.7191 C299.9348,3.2171 300.3418,2.8101 300.8438,2.8101 L316.0038,2.8101 C316.2868,2.8101 316.5538,2.9421 316.7258,3.1681 L351.8958,49.3091 C352.9838,50.7361 355.2608,49.9671 355.2608,48.1731 L355.2608,2.8101 Z" id="Fill-10" fill="#1DE9B6"></path>
            </g>
        </g>
    </g>
</svg>